# xmcd
#
# Track frame offsets:
#	182
#	19837
#	36982
#	55360
#	71497
#	91672
#	110197
#	128042
#	144767
#	162822
#
# Disc length: 2437 seconds
#
# Revision: 1
# Processed by: cddbd v1.5.2PL0 Copyright (c) Steve Scherf et al.
# Submitted via: EZCDAudioConverter 7.1.0.1
#
DISCID=8209830a
DTITLE=庾澄庆 - 让我一次爱个够
DYEAR=1989
DGENRE=
TTITLE0=让我一次爱个够
TTITLE1=整晚的音乐
TTITLE2=码头之歌
TTITLE3=无法忍受
TTITLE4=没有选择
TTITLE5=爱你的记忆
TTITLE6=等待明天
TTITLE7=无人岛
TTITLE8=飞翔城市
TTITLE9=码头之歌（演奏曲）
EXTD=
EXTT0=
EXTT1=
EXTT2=
EXTT3=
EXTT4=
EXTT5=
EXTT6=
EXTT7=
EXTT8=
EXTT9=
PLAYORDER=
